# xmcd
#
# Track frame offsets:
#  150
#  27100
#  44978
#  70203
#  83038
#  107293
#  124433
#  143270
#  172573
#  192413
#
# Disc length: 2872 seconds
#
# Revision: 3
# Processed by: cddbd v1.5.2PL0 Copyright (c) Steve Scherf et al.
# Submitted via: Collectorz.com_Music_Collector 6.11
#
DISCID=7d0b360a
DTITLE=John Mayall - USA Union
DYEAR=1970
DGENRE=Jazz/Blues
TTITLE0=Nature's Disappearing
TTITLE1=You Must Be Crazy
TTITLE2=Night Flyer
TTITLE3=Off The Road
TTITLE4=Possessive Emotions
TTITLE5=Where Did My Legs Go
TTITLE6=Took The Car
TTITLE7=Crying
TTITLE8=My Pretty Girl
TTITLE9=Deep Blue Sea
EXTD=
EXTT0=
EXTT1=
EXTT2=
EXTT3=
EXTT4=
EXTT5=
EXTT6=
EXTT7=
EXTT8=
EXTT9=
PLAYORDER=
